<?xml version="1.0" encoding="UTF-8"?>
<svg width="748px" height="130px" viewBox="0 0 748 130" version="1.1" xmlns="http://www.w3.org/2000/svg" xmlns:xlink="http://www.w3.org/1999/xlink">
    <!-- Generator: Sketch 48.2 (47327) - http://www.bohemiancoding.com/sketch -->
    <title>LogoOutline</title>
    <desc>Created with Sketch.</desc>
    <defs></defs>
    <g id="Logo01" stroke="none" stroke-width="1" fill="none" fill-rule="evenodd" transform="translate(-344.000000, -388.000000)">
        <g id="LogoOutline" transform="translate(344.000000, 388.000000)" fill="#2F51BF">
            <path d="M209.1,78.5 C209.1,76.899992 208.800003,75.3833405 208.2,73.95 C207.599997,72.5166595 206.766672,71.266672 205.7,70.2 C204.633328,69.133328 203.400007,68.2833365 202,67.65 C200.599993,67.0166635 199.066675,66.7 197.4,66.7 C195.799992,66.7 194.300007,66.999997 192.9,67.6 C191.499993,68.200003 190.283339,69.033328 189.25,70.1 C188.216661,71.166672 187.383336,72.4166595 186.75,73.85 C186.116664,75.2833405 185.8,76.799992 185.8,78.4 C185.8,80.000008 186.099997,81.499993 186.7,82.9 C187.300003,84.300007 188.133328,85.5166615 189.2,86.55 C190.266672,87.5833385 191.51666,88.4166635 192.95,89.05 C194.383341,89.6833365 195.899992,90 197.5,90 C199.100008,90 200.599993,89.700003 202,89.1 C203.400007,88.499997 204.616662,87.666672 205.65,86.6 C206.683338,85.533328 207.516663,84.300007 208.15,82.9 C208.783337,81.499993 209.1,80.033341 209.1,78.5 Z M186.3,21 L186.3,57.8 C190.566688,53.333311 195.899968,51.1 202.3,51.1 C206.100019,51.1 209.583317,51.8166595 212.75,53.25 C215.916683,54.6833405 218.616656,56.6166545 220.85,59.05 C223.083345,61.4833455 224.833327,64.3499835 226.1,67.65 C227.366673,70.9500165 228,74.466648 228,78.2 C228,82.000019 227.350007,85.56665 226.05,88.9 C224.749994,92.23335 222.933345,95.133321 220.6,97.6 C218.266655,100.066679 215.516683,102.01666 212.35,103.45 C209.183317,104.883341 205.766685,105.6 202.1,105.6 C195.4333,105.6 190.166686,103.166691 186.3,98.3 L186.3,104 L168.2,104 L168.2,21 L186.3,21 Z M252.1,78.2 C252.1,79.866675 252.399997,81.4166595 253,82.85 C253.600003,84.2833405 254.416662,85.533328 255.45,86.6 C256.483339,87.666672 257.716659,88.499997 259.15,89.1 C260.583341,89.700003 262.133325,90 263.8,90 C265.400008,90 266.91666,89.700003 268.35,89.1 C269.783341,88.499997 271.016661,87.666672 272.05,86.6 C273.083339,85.533328 273.916664,84.300007 274.55,82.9 C275.183336,81.499993 275.5,80.000008 275.5,78.4 C275.5,76.799992 275.183336,75.2833405 274.55,73.85 C273.916664,72.4166595 273.083339,71.166672 272.05,70.1 C271.016661,69.033328 269.783341,68.200003 268.35,67.6 C266.91666,66.999997 265.400008,66.7 263.8,66.7 C262.133325,66.7 260.583341,66.999997 259.15,67.6 C257.716659,68.200003 256.483339,69.033328 255.45,70.1 C254.416662,71.166672 253.600003,72.3833265 253,73.75 C252.399997,75.1166735 252.1,76.599992 252.1,78.2 Z M274.9,52.7 L293.1,52.7 L293.1,104 L274.9,104 L274.9,98.3 C271.033314,103.166691 265.800033,105.6 259.2,105.6 C255.466648,105.6 252.033349,104.916673 248.9,103.55 C245.766651,102.183326 243.033345,100.266679 240.7,97.8 C238.366655,95.333321 236.550006,92.43335 235.25,89.1 C233.949994,85.76665 233.3,82.133353 233.3,78.2 C233.3,74.533315 233.933327,71.0500165 235.2,67.75 C236.466673,64.4499835 238.233322,61.566679 240.5,59.1 C242.766678,56.633321 245.466651,54.6833405 248.6,53.25 C251.733349,51.8166595 255.199981,51.1 259,51.1 C265.400032,51.1 270.699979,53.333311 274.9,57.8 L274.9,52.7 Z M319.2,78.2 C319.2,79.866675 319.499997,81.4166595 320.1,82.85 C320.700003,84.2833405 321.516662,85.533328 322.55,86.6 C323.583339,87.666672 324.81666,88.499997 326.25,89.1 C327.683341,89.700003 329.233325,90 330.9,90 C332.500008,90 334.01666,89.700003 335.45,89.1 C336.883341,88.499997 338.116662,87.666672 339.15,86.6 C340.183339,85.533328 341.016664,84.300007 341.65,82.9 C342.283337,81.499993 342.6,80.000008 342.6,78.4 C342.6,76.799992 342.283337,75.2833405 341.65,73.85 C341.016664,72.4166595 340.183339,71.166672 339.15,70.1 C338.116662,69.033328 336.883341,68.200003 335.45,67.6 C334.01666,66.999997 332.500008,66.7 330.9,66.7 C329.299992,66.7 327.783341,66.999997 326.35,67.6 C324.91666,68.200003 323.683339,69.033328 322.65,70.1 C321.616662,71.166672 320.783337,72.3833265 320.15,73.75 C319.516664,75.1166735 319.2,76.599992 319.2,78.2 Z M342,21 L360.2,21 L360.2,104 L342,104 L342,98.3 C338.133314,103.166691 332.900033,105.6 326.3,105.6 C322.566648,105.6 319.133349,104.900007 316,103.5 C312.866651,102.099993 310.133345,100.166679 307.8,97.7 C305.466655,95.233321 303.650007,92.33335 302.35,89 C301.049994,85.66665 300.4,82.066686 300.4,78.2 C300.4,74.533315 301.016661,71.0500165 302.25,67.75 C303.48334,64.4499835 305.233322,61.566679 307.5,59.1 C309.766678,56.633321 312.483317,54.6833405 315.65,53.25 C318.816683,51.8166595 322.299981,51.1 326.1,51.1 C332.500032,51.1 337.799979,53.333311 342,57.8 L342,21 Z M386.3,78.1 C386.3,79.766675 386.599997,81.3166595 387.2,82.75 C387.800003,84.1833405 388.616662,85.433328 389.65,86.5 C390.683338,87.566672 391.91666,88.399997 393.35,89 C394.783341,89.600003 396.333325,89.9 398,89.9 C399.600008,89.9 401.116659,89.600003 402.55,89 C403.983341,88.399997 405.216661,87.566672 406.25,86.5 C407.283339,85.433328 408.116664,84.1833405 408.75,82.75 C409.383337,81.3166595 409.7,79.800008 409.7,78.2 C409.7,76.533325 409.383337,75.000007 408.75,73.6 C408.116664,72.199993 407.266672,70.966672 406.2,69.9 C405.133328,68.833328 403.883341,68.000003 402.45,67.4 C401.01666,66.799997 399.533341,66.5 398,66.5 C396.399992,66.5 394.900007,66.8166635 393.5,67.45 C392.099993,68.0833365 390.866672,68.9166615 389.8,69.95 C388.733328,70.9833385 387.883337,72.199993 387.25,73.6 C386.616664,75.000007 386.3,76.499992 386.3,78.1 Z M426.9,52.7 L426.9,100.5 C426.9,103.366681 426.733335,105.933322 426.4,108.2 C426.066665,110.466678 425.600003,112.466658 425,114.2 C424.199996,116.400011 422.950008,118.449991 421.25,120.35 C419.549992,122.25001 417.500012,123.899993 415.1,125.3 C412.699988,126.700007 409.983348,127.799996 406.95,128.6 C403.916651,129.400004 400.633351,129.8 397.1,129.8 C393.09998,129.8 389.43335,129.300005 386.1,128.3 C382.76665,127.299995 379.850012,125.916676 377.35,124.15 C374.849987,122.383325 372.800008,120.316679 371.2,117.95 C369.599992,115.583322 368.533336,113.000014 368,110.2 L388.4,110.2 C389.666673,113.600017 392.533311,115.3 397,115.3 C400.800019,115.3 403.716656,114.233344 405.75,112.1 C407.783344,109.966656 408.8,107.000019 408.8,103.2 L408.8,98.3 C407.46666,99.566673 406.183339,100.616663 404.95,101.45 C403.71666,102.283338 402.466673,102.966664 401.2,103.5 C399.933327,104.033336 398.600007,104.416666 397.2,104.65 C395.799993,104.883335 394.266675,105 392.6,105 C388.933315,105 385.566682,104.366673 382.5,103.1 C379.433318,101.833327 376.783344,100.066678 374.55,97.8 C372.316656,95.533322 370.583339,92.8166825 369.35,89.65 C368.11666,86.4833175 367.5,82.966686 367.5,79.1 C367.5,75.166647 368.16666,71.5166835 369.5,68.15 C370.83334,64.7833165 372.649988,61.8500125 374.95,59.35 C377.250012,56.8499875 379.983317,54.8833405 383.15,53.45 C386.316682,52.0166595 389.766648,51.3 393.5,51.3 C399.566697,51.3 404.666646,53.566644 408.8,58.1 L408.8,52.7 L426.9,52.7 Z M474.9,70.9 C474.299997,68.366654 473.066676,66.333341 471.2,64.8 C469.333324,63.266659 467.06668,62.5 464.4,62.5 C461.599986,62.5 459.316676,63.233326 457.55,64.7 C455.783324,66.166674 454.666669,68.23332 454.2,70.9 L474.9,70.9 Z M453.7,81.4 C453.7,89.200039 457.36663,93.1 464.7,93.1 C468.633353,93.1 471.59999,91.500016 473.6,88.3 L491.1,88.3 C487.566649,100.033392 478.733404,105.9 464.6,105.9 C460.266645,105.9 456.300018,105.250006 452.7,103.95 C449.099982,102.649994 446.01668,100.800012 443.45,98.4 C440.88332,95.999988 438.900007,93.13335 437.5,89.8 C436.099993,86.46665 435.4,82.733354 435.4,78.6 C435.4,74.333312 436.06666,70.4833505 437.4,67.05 C438.73334,63.6166495 440.633321,60.700012 443.1,58.3 C445.566679,55.899988 448.549982,54.0500065 452.05,52.75 C455.550018,51.4499935 459.499978,50.8 463.9,50.8 C468.233355,50.8 472.133316,51.4499935 475.6,52.75 C479.066684,54.0500065 481.999988,55.933321 484.4,58.4 C486.800012,60.866679 488.633327,63.8833155 489.9,67.45 C491.166673,71.0166845 491.8,75.033311 491.8,79.5 L491.8,81.4 L453.7,81.4 Z M518.7,67.8 L518.7,104 L500.6,104 L500.6,67.8 L494.1,67.8 L494.1,52.7 L500.6,52.7 L500.6,45 C500.6,40.733312 500.999996,37.333346 501.8,34.8 C502.46667,32.666656 503.533326,30.6833425 505,28.85 C506.466674,27.0166575 508.183323,25.43334 510.15,24.1 C512.116677,22.76666 514.233322,21.733337 516.5,21 C518.766678,20.266663 520.999989,19.9 523.2,19.9 C524.733341,19.9 526.149993,20.066665 527.45,20.4 C528.750006,20.733335 530.06666,21.199997 531.4,21.8 L531.4,37.6 C530.199994,36.999997 529.083339,36.5500015 528.05,36.25 C527.016662,35.9499985 525.933339,35.8 524.8,35.8 C524.066663,35.8 523.316671,35.9166655 522.55,36.15 C521.78333,36.3833345 521.06667,36.866663 520.4,37.6 C519.73333,38.333337 519.283334,39.3833265 519.05,40.75 C518.816665,42.1166735 518.7,43.966655 518.7,46.3 L518.7,52.7 L531.4,52.7 L531.4,67.8 L518.7,67.8 Z M553.2,78.1 C553.2,79.833342 553.516664,81.4166595 554.15,82.85 C554.783337,84.2833405 555.616661,85.533328 556.65,86.6 C557.683338,87.666672 558.91666,88.499997 560.35,89.1 C561.783341,89.700003 563.299992,90 564.9,90 C566.500008,90 568.01666,89.700003 569.45,89.1 C570.883341,88.499997 572.116661,87.666672 573.15,86.6 C574.183338,85.533328 575.016664,84.2833405 575.65,82.85 C576.283337,81.4166595 576.6,79.866675 576.6,78.2 C576.6,76.599992 576.283337,75.0833405 575.65,73.65 C575.016664,72.2166595 574.183338,70.966672 573.15,69.9 C572.116661,68.833328 570.883341,68.000003 569.45,67.4 C568.01666,66.799997 566.500008,66.5 564.9,66.5 C563.299992,66.5 561.783341,66.799997 560.35,67.4 C558.91666,68.000003 557.683338,68.833328 556.65,69.9 C555.616661,70.966672 554.783337,72.199993 554.15,73.6 C553.516664,75.000007 553.2,76.499992 553.2,78.1 Z M534.1,77.9 C534.1,74.099981 534.866659,70.5500165 536.4,67.25 C537.933341,63.9499835 540.066653,61.0833455 542.8,58.65 C545.533347,56.2166545 548.783314,54.300007 552.55,52.9 C556.316685,51.499993 560.433311,50.8 564.9,50.8 C569.300022,50.8 573.383315,51.4833265 577.15,52.85 C580.916686,54.2166735 584.18332,56.1166545 586.95,58.55 C589.71668,60.9833455 591.866659,63.8833165 593.4,67.25 C594.933341,70.6166835 595.7,74.333313 595.7,78.4 C595.7,82.466687 594.916674,86.1833165 593.35,89.55 C591.783326,92.9166835 589.633347,95.8166545 586.9,98.25 C584.166653,100.683346 580.883353,102.56666 577.05,103.9 C573.216647,105.23334 569.066689,105.9 564.6,105.9 C560.199978,105.9 556.133352,105.23334 552.4,103.9 C548.666648,102.56666 545.450014,100.666679 542.75,98.2 C540.049986,95.733321 537.933341,92.7833505 536.4,89.35 C534.866659,85.9166495 534.1,82.100021 534.1,77.9 Z M603.1,52.7 L621.2,52.7 L621.2,61.1 C623.133343,58.033318 625.499986,55.6833415 628.3,54.05 C631.100014,52.4166585 634.366648,51.6 638.1,51.6 L639.65,51.6 C640.21667,51.6 640.866663,51.666666 641.6,51.8 L641.6,69.1 C639.199988,67.899994 636.600014,67.3 633.8,67.3 C629.599979,67.3 626.450011,68.5499875 624.35,71.05 C622.24999,73.5500125 621.2,77.199976 621.2,82 L621.2,104 L603.1,104 L603.1,52.7 Z M685.9,69.3 C682.766651,67.166656 679.600016,66.1 676.4,66.1 C674.666658,66.1 673.050008,66.399997 671.55,67 C670.049993,67.600003 668.733339,68.4499945 667.6,69.55 C666.466661,70.6500055 665.583337,71.9499925 664.95,73.45 C664.316664,74.9500075 664,76.633324 664,78.5 C664,80.300009 664.316664,81.9499925 664.95,83.45 C665.583337,84.9500075 666.449995,86.2499945 667.55,87.35 C668.650006,88.4500055 669.966659,89.299997 671.5,89.9 C673.033341,90.500003 674.666658,90.8 676.4,90.8 C679.800017,90.8 682.966652,89.633345 685.9,87.3 L685.9,102.7 C681.433311,104.633343 677.20002,105.6 673.2,105.6 C669.466648,105.6 665.916684,104.966673 662.55,103.7 C659.183317,102.433327 656.21668,100.616678 653.65,98.25 C651.083321,95.8833215 649.033341,93.0500165 647.5,89.75 C645.966659,86.4499835 645.2,82.766687 645.2,78.7 C645.2,74.633313 645.933326,70.9166835 647.4,67.55 C648.866674,64.1833165 650.866654,61.2833455 653.4,58.85 C655.933346,56.4166545 658.949983,54.5166735 662.45,53.15 C665.950018,51.7833265 669.69998,51.1 673.7,51.1 C678.100022,51.1 682.166648,52.033324 685.9,53.9 L685.9,69.3 Z M730.7,70.9 C730.099997,68.366654 728.866676,66.333341 727,64.8 C725.133324,63.266659 722.86668,62.5 720.2,62.5 C717.399986,62.5 715.116675,63.233326 713.35,64.7 C711.583325,66.166674 710.466669,68.23332 710,70.9 L730.7,70.9 Z M709.5,81.4 C709.5,89.200039 713.16663,93.1 720.5,93.1 C724.433353,93.1 727.39999,91.500016 729.4,88.3 L746.9,88.3 C743.366649,100.033392 734.533404,105.9 720.4,105.9 C716.066645,105.9 712.100018,105.250006 708.5,103.95 C704.899982,102.649994 701.816679,100.800012 699.25,98.4 C696.683321,95.999988 694.700007,93.13335 693.3,89.8 C691.899993,86.46665 691.2,82.733354 691.2,78.6 C691.2,74.333312 691.86666,70.4833505 693.2,67.05 C694.53334,63.6166495 696.433321,60.700012 698.9,58.3 C701.366679,55.899988 704.349983,54.0500065 707.85,52.75 C711.350018,51.4499935 715.299978,50.8 719.7,50.8 C724.033355,50.8 727.933316,51.4499935 731.4,52.75 C734.866684,54.0500065 737.799988,55.933321 740.2,58.4 C742.600012,60.866679 744.433327,63.8833155 745.7,67.45 C746.966673,71.0166845 747.6,75.033311 747.6,79.5 L747.6,81.4 L709.5,81.4 Z" id="badgeforce"></path>
            <path d="M103.540211,11.2322409 L56.0044313,58.7765093 L37.363961,40.136039 L24.636039,52.863961 L56.0055677,84.2334897 L111.815016,28.4140752 C111.007179,49.5181189 107.497305,66.5493147 100.188324,80.998739 C91.7514124,97.7822615 78.4632768,111.021438 58.8474576,123.218159 C57.1600753,124.260614 54.9453861,124.260614 53.2580038,123.218159 C33.6421846,111.021438 20.354049,97.7822615 11.9171375,80.998739 C3.48022599,64.319462 0,44.2000841 0,18.3472047 C0,16.1580496 1.37099812,14.2816309 3.3747646,13.5519126 C12.2335217,9.38209332 20.9868173,6.1504834 29.6346516,3.85708281 C39.2316384,1.25094578 47.6685499,0 56,0 C64.4369115,0 72.7683616,1.25094578 82.4708098,3.85708281 C89.3568839,5.7058111 96.3800177,8.16419712 103.540211,11.2322409 Z" id="Combined-Shape"></path>
        </g>
    </g>
</svg>